<svg width="32" height="32" fill="none" xmlns="http://www.w3.org/2000/svg"><path d="M16.277 9.227C12.217 3.095 4 6.436 4 13.116 4 18.133 15.265 25.98 16.277 27 17.295 25.98 28 18.133 28 13.116c0-6.63-7.656-10.021-11.723-3.889z" fill="#fff"/><path d="M16.277 9.227l-.834.552a1 1 0 001.667.001l-.833-.553zm0 17.773l-.71.704a1 1 0 001.417.002L16.277 27zm.833-18.325c-2.286-3.453-5.838-4.306-8.827-3.251C5.335 6.464 3 9.338 3 13.116h2c0-2.902 1.773-5.039 3.949-5.806 2.134-.753 4.72-.21 6.494 2.47l1.667-1.105zM3 13.116c0 1.588.87 3.238 1.97 4.735 1.127 1.53 2.618 3.063 4.11 4.44 1.498 1.382 3.022 2.633 4.227 3.596.596.476 1.136.9 1.53 1.212.425.338.655.53.73.605l1.42-1.408c-.178-.18-.522-.457-.906-.762-.417-.332-.923-.728-1.525-1.21-1.191-.951-2.673-2.168-4.119-3.502-1.45-1.34-2.838-2.773-3.856-4.156C5.54 15.248 5 14.036 5 13.116H3zm13.984 14.59c.085-.084.317-.282.725-.619.386-.317.894-.733 1.47-1.214 1.155-.964 2.61-2.215 4.037-3.598 1.423-1.379 2.843-2.912 3.915-4.444 1.05-1.5 1.869-3.143 1.869-4.715h-2c0 .937-.519 2.155-1.508 3.569-.967 1.383-2.287 2.816-3.668 4.153a71.267 71.267 0 01-3.927 3.5c-.57.476-1.066.88-1.46 1.207-.373.307-.698.578-.868.748l1.415 1.413zM29 13.116c0-3.714-2.156-6.604-4.985-7.666-2.884-1.084-6.296-.206-8.572 3.225L17.11 9.78c1.792-2.702 4.242-3.195 6.202-2.458C25.328 8.079 27 10.2 27 13.116h2z" fill="#fff"/></svg>