<svg width="26" height="23" fill="none" xmlns="http://www.w3.org/2000/svg"><path d="M13.277 4.227l-.834.552a1 1 0 001.667.001l-.833-.553zm0 17.773l-.71.704a1 1 0 001.417.002L13.277 22zm.834-18.325C11.823.222 8.271-.63 5.283.424 2.335 1.464 0 4.338 0 8.116h2C2 5.214 3.773 3.077 5.949 2.31c2.134-.753 4.72-.21 6.494 2.47l1.668-1.105zM0 8.116c0 1.588.87 3.238 1.97 4.735 1.127 1.53 2.618 3.063 4.11 4.44 1.498 1.382 3.022 2.633 4.227 3.596.596.476 1.136.9 1.53 1.212.425.338.655.53.73.605l1.42-1.408c-.178-.18-.522-.457-.906-.762-.417-.332-.923-.728-1.525-1.21-1.191-.951-2.673-2.168-4.119-3.502-1.45-1.34-2.838-2.773-3.856-4.156C2.54 10.248 2 9.036 2 8.116H0zm13.984 14.59c.085-.084.317-.282.725-.619.386-.317.894-.733 1.47-1.214 1.155-.964 2.61-2.215 4.037-3.598 1.423-1.379 2.843-2.912 3.915-4.443C25.18 11.332 26 9.688 26 8.116h-2c0 .936-.519 2.155-1.508 3.569-.967 1.383-2.287 2.816-3.668 4.153a71.267 71.267 0 01-3.927 3.5c-.57.476-1.066.88-1.46 1.207-.373.307-.698.578-.868.748l1.415 1.413zM26 8.116c0-3.714-2.156-6.604-4.985-7.666-2.884-1.084-6.296-.206-8.572 3.225L14.11 4.78c1.792-2.702 4.242-3.195 6.202-2.458C22.328 3.079 24 5.2 24 8.116h2z" fill="#010002"/></svg>