<svg width="25" height="24" fill="none" xmlns="http://www.w3.org/2000/svg"><path d="M5.535 2.037h4.422a.958.958 0 01.13 1.906l-.13.009H5.535a2.873 2.873 0 00-2.867 2.676l-.006.197v12.128a2.873 2.873 0 002.676 2.866l.197.006h12.128a2.872 2.872 0 002.866-2.675l.006-.197v-.636a.957.957 0 011.908-.129l.008.13v.635a4.788 4.788 0 01-4.533 4.781l-.255.006H5.535a4.788 4.788 0 01-4.782-4.532l-.006-.255V6.825A4.788 4.788 0 015.28 2.043l.256-.006h4.422-4.422zm9.898 3.217V1.718a.958.958 0 011.515-.779l.105.088 7.652 7.341c.358.342.39.894.098 1.273l-.098.108-7.652 7.344a.958.958 0 01-1.611-.554l-.01-.137v-3.479l-.439.038c-3.064.32-6 1.698-8.826 4.162-.664.579-1.69.032-1.58-.84.848-6.791 4.4-10.535 10.463-11.005l.383-.025V1.718v3.536zm1.915-1.29v2.222a.958.958 0 01-.958.958c-4.946 0-8.01 2.14-9.335 6.583l-.1.357.449-.303c2.858-1.866 5.856-2.807 8.987-2.807a.957.957 0 01.949.827l.009.13v2.226l5.31-5.098-5.311-5.095z" fill="#fff"/></svg>