<svg width="21" height="19" fill="none" xmlns="http://www.w3.org/2000/svg"><path d="M10.469 3.363C7.255-1.602.75 1.103.75 6.51c0 4.06 8.918 10.413 9.719 11.24.806-.827 9.281-7.18 9.281-11.24 0-5.367-6.061-8.113-9.281-3.148z" fill="#FF652F"/><path d="M10.469 3.363l-.42.271a.5.5 0 00.84 0l-.42-.271zm0 14.387l-.359.348a.5.5 0 00.717.001l-.358-.349zm.42-14.66C9.156.416 6.483-.233 4.235.578 2.01 1.379.25 3.595.25 6.51h1c0-2.492 1.493-4.333 3.324-4.994 1.808-.652 3.994-.171 5.475 2.117l.84-.543zM.25 6.51c0 1.179.637 2.446 1.5 3.646.875 1.216 2.04 2.442 3.216 3.551a62.38 62.38 0 003.33 2.897c.473.386.895.725 1.21.98.33.27.53.437.604.514l.718-.696a9.897 9.897 0 00-.691-.593c-.327-.266-.732-.59-1.208-.98a61.344 61.344 0 01-3.277-2.85c-1.154-1.089-2.268-2.265-3.09-3.407-.834-1.16-1.312-2.21-1.312-3.061h-1zM10.827 18.1c.08-.082.277-.253.595-.521.306-.259.707-.594 1.162-.982a58.748 58.748 0 003.18-2.898c1.12-1.11 2.23-2.336 3.062-3.553.822-1.202 1.424-2.465 1.424-3.635h-1c0 .86-.457 1.913-1.25 3.07-.781 1.143-1.84 2.318-2.94 3.407a57.732 57.732 0 01-3.125 2.848c-.453.387-.847.716-1.158.978-.3.254-.544.462-.666.587l.716.698zM20.25 6.51c0-2.876-1.63-5.099-3.754-5.914-2.155-.829-4.718-.17-6.446 2.494l.838.545c1.492-2.3 3.57-2.751 5.25-2.106 1.711.658 3.112 2.49 3.112 4.982h1z" fill="#fff"/></svg>